<svg width="5200" height="1000" viewBox="0 0 5200 1000" fill="none" xmlns="http://www.w3.org/2000/svg">
<path d="M1314 872.8C1237.2 872.8 1170 858.4 1112.4 829.6C1055.6 800 1011.2 760 979.2 709.6C948 658.4 932.4 600.4 932.4 535.6C932.4 470.8 947.6 413.2 978 362.8C1009.2 311.6 1052 272 1106.4 244C1160.8 215.2 1222 200.8 1290 200.8C1354 200.8 1412.4 214 1465.2 240.4C1518 266 1560 304 1591.2 354.4C1622.4 404.8 1638 466 1638 538C1638 546 1637.6 555.2 1636.8 565.6C1636 576 1635.2 585.6 1634.4 594.4H1119.6V474.4H1513.2L1426.8 508C1427.6 478.4 1422 452.8 1410 431.2C1398.8 409.6 1382.8 392.8 1362 380.8C1342 368.8 1318.4 362.8 1291.2 362.8C1264 362.8 1240 368.8 1219.2 380.8C1199.2 392.8 1183.6 410 1172.4 432.4C1161.2 454 1155.6 479.6 1155.6 509.2V544C1155.6 576 1162 603.6 1174.8 626.8C1188.4 650 1207.6 668 1232.4 680.8C1257.2 692.8 1286.8 698.8 1321.2 698.8C1353.2 698.8 1380.4 694.4 1402.8 685.6C1426 676 1448.8 661.6 1471.2 642.4L1591.2 767.2C1560 801.6 1521.6 828 1476 846.4C1430.4 864 1376.4 872.8 1314 872.8ZM2166.72 200.8C2217.12 200.8 2262.72 211.2 2303.52 232C2344.32 252 2376.32 283.2 2399.52 325.6C2423.52 368 2435.52 422.8 2435.52 490V862H2207.52V527.2C2207.52 480.8 2197.92 447.2 2178.72 426.4C2160.32 404.8 2134.32 394 2100.72 394C2076.72 394 2054.72 399.6 2034.72 410.8C2014.72 421.2 1999.12 437.6 1987.92 460C1976.72 482.4 1971.12 511.6 1971.12 547.6V862H1743.12V211.6H1960.32V396.4L1918.32 342.4C1943.12 295.2 1977.12 260 2020.32 236.8C2063.52 212.8 2112.32 200.8 2166.72 200.8ZM2869.07 872.8C2785.87 872.8 2721.07 852.4 2674.67 811.6C2628.27 770 2605.07 707.6 2605.07 624.4V66.3999H2833.07V622C2833.07 645.2 2839.47 663.6 2852.27 677.2C2865.07 690 2881.47 696.4 2901.47 696.4C2928.67 696.4 2951.87 689.6 2971.07 676L3027.47 835.6C3008.27 848.4 2984.67 857.6 2956.67 863.2C2928.67 869.6 2899.47 872.8 2869.07 872.8ZM2510.27 406V235.6H2981.87V406H2510.27ZM3388.99 872.8C3336.19 872.8 3288.59 862.4 3246.19 841.6C3204.59 820.8 3171.79 788.4 3147.79 744.4C3124.59 699.6 3112.99 643.2 3112.99 575.2V211.6H3340.99V538C3340.99 588.4 3350.19 624.4 3368.59 646C3387.79 667.6 3414.59 678.4 3448.99 678.4C3471.39 678.4 3491.79 673.2 3510.19 662.8C3528.59 652.4 3543.39 636 3554.59 613.6C3565.79 590.4 3571.39 560.8 3571.39 524.8V211.6H3799.39V862H3582.19V678.4L3624.19 730C3601.79 778 3569.39 814 3526.99 838C3484.59 861.2 3438.59 872.8 3388.99 872.8ZM3946.25 862V211.6H4163.45V401.2L4131.05 347.2C4150.25 298.4 4181.45 262 4224.65 238C4267.85 213.2 4320.25 200.8 4381.85 200.8V406C4371.45 404.4 4362.25 403.6 4354.25 403.6C4347.05 402.8 4339.05 402.4 4330.25 402.4C4283.85 402.4 4246.25 415.2 4217.45 440.8C4188.65 465.6 4174.25 506.4 4174.25 563.2V862H3946.25ZM4810.88 872.8C4734.08 872.8 4666.88 858.4 4609.28 829.6C4552.48 800 4508.08 760 4476.07 709.6C4444.88 658.4 4429.28 600.4 4429.28 535.6C4429.28 470.8 4444.48 413.2 4474.88 362.8C4506.08 311.6 4548.88 272 4603.28 244C4657.68 215.2 4718.88 200.8 4786.88 200.8C4850.88 200.8 4909.28 214 4962.08 240.4C5014.88 266 5056.88 304 5088.08 354.4C5119.28 404.8 5134.88 466 5134.88 538C5134.88 546 5134.48 555.2 5133.68 565.6C5132.88 576 5132.08 585.6 5131.28 594.4H4616.48V474.4H5010.08L4923.68 508C4924.48 478.4 4918.88 452.8 4906.88 431.2C4895.68 409.6 4879.68 392.8 4858.88 380.8C4838.88 368.8 4815.28 362.8 4788.08 362.8C4760.88 362.8 4736.88 368.8 4716.08 380.8C4696.08 392.8 4680.48 410 4669.28 432.4C4658.08 454 4652.48 479.6 4652.48 509.2V544C4652.48 576 4658.88 603.6 4671.68 626.8C4685.28 650 4704.48 668 4729.28 680.8C4754.08 692.8 4783.68 698.8 4818.08 698.8C4850.08 698.8 4877.28 694.4 4899.68 685.6C4922.88 676 4945.68 661.6 4968.08 642.4L5088.08 767.2C5056.88 801.6 5018.48 828 4972.88 846.4C4927.28 864 4873.28 872.8 4810.88 872.8Z" fill="white" fill-opacity="0.7"/>
<path d="M475.877 910C404.867 910 340.705 867.636 312.811 802.334L0 69.9997V69.9997C155.486 69.9997 295.701 163.548 355.402 307.115L484.489 617.538L625.468 286.404C681.336 155.177 810.175 69.9997 952.8 69.9997V69.9997L638.858 802.53C610.917 867.728 546.809 910 475.877 910V910Z" fill="white" fill-opacity="0.7"/>
</svg>
