<svg width="16" height="17" viewBox="0 0 16 17" fill="none" xmlns="http://www.w3.org/2000/svg">
<path d="M6.96296 9.97454H1.03704C0.74321 9.97454 0.496909 9.8749 0.298133 9.67563C0.0993777 9.47638 0 9.22947 0 8.93489C0 8.64033 0.0993777 8.39429 0.298133 8.19676C0.496909 7.99923 0.74321 7.90046 1.03704 7.90046H6.96296V1.97454C6.96296 1.68071 7.0626 1.43441 7.26187 1.23563C7.46112 1.03688 7.70803 0.9375 8.00261 0.9375C8.29717 0.9375 8.54321 1.03688 8.74074 1.23563C8.93827 1.43441 9.03704 1.68071 9.03704 1.97454V7.90046H14.963C15.2568 7.90046 15.5031 8.0001 15.7019 8.19937C15.9006 8.39862 16 8.64553 16 8.94011C16 9.23467 15.9006 9.48071 15.7019 9.67824C15.5031 9.87577 15.2568 9.97454 14.963 9.97454H9.03704V15.9005C9.03704 16.1943 8.9374 16.4406 8.73813 16.6394C8.53888 16.8381 8.29197 16.9375 7.99739 16.9375C7.70283 16.9375 7.45679 16.8381 7.25926 16.6394C7.06173 16.4406 6.96296 16.1943 6.96296 15.9005V9.97454Z" fill="white"/>
</svg>
